<svg width="68" height="60" viewBox="0 0 68 60" fill="none" xmlns="http://www.w3.org/2000/svg">
<path d="M64.5 2.33327L61.7666 5.0666L58.6 1.8666C57.3 0.566602 55.2 0.566602 53.8666 1.8666L50.6666 5.0666L47.4666 1.8666C46.1666 0.566602 44.0333 0.566602 42.7333 1.8666L39.5666 5.0666L36.3666 1.8666C35.0666 0.566602 32.9666 0.566602 31.6666 1.8666L28.4666 5.0666L25.2666 1.8666C23.9666 0.566602 21.8666 0.566602 20.5333 1.8666L17.3333 5.0666L14.1333 1.8666C12.8333 0.566602 10.7 0.566602 9.39996 1.8666L6.23329 5.0666L3.49996 2.33327C2.46663 1.29993 0.666626 2.03327 0.666626 3.53327V52.8333C0.666626 56.4999 3.66663 59.4999 7.33329 59.4999H60.6666C64.3333 59.4999 67.3333 56.4999 67.3333 52.8333V3.53327C67.3333 2.03327 65.5333 1.29993 64.5 2.33327ZM30.6666 52.8333H7.33329V32.8333H30.6666V52.8333ZM60.6666 52.8333H37.3333V46.1666H60.6666V52.8333ZM60.6666 39.4999H37.3333V32.8333H60.6666V39.4999ZM60.6666 26.1666H7.33329V16.1666H60.6666V26.1666Z" fill="white"/>
</svg>
